<?xml version="1.0" encoding="UTF-8"?>
<svg width="14px" height="8px" viewBox="0 0 14 8" version="1.1" xmlns="http://www.w3.org/2000/svg" xmlns:xlink="http://www.w3.org/1999/xlink">
    <title>路径</title>
    <g id="试驾web页面" stroke="none" stroke-width="1" fill="none" fill-rule="evenodd">
        <g id="试驾web-1" transform="translate(-670.000000, -651.000000)" fill="#ffffff" fill-rule="nonzero">
            <g id="编组-8" transform="translate(242.000000, 263.000000)">
                <g id="编组-2备份" transform="translate(0.000000, 2.000000)">
                    <g id="箭头-下" transform="translate(428.000000, 386.000000)">
                        <path d="M6.8912103,7.74675748 C6.20676522,7.74675748 5.60787597,7.49009001 5.09453653,6.97675658 L0.217859172,1.50119298 C-0.124364117,1.1589697 -0.038808295,0.645636266 0.303414843,0.303414481 C0.645638132,-0.0388088077 1.15897156,0.0467470145 1.50119335,0.388970153 L6.46342803,5.86453375 C6.5489837,5.95008942 6.72009549,6.0356454 6.89120563,6.0356454 C7.06231728,6.0356454 7.23342892,5.95008972 7.40453906,5.77897793 L12.1101018,0.303414331 C12.4523251,-0.0388089581 12.9656585,-0.124363276 13.3078803,0.217858659 C13.6501036,0.560081948 13.7356579,1.07341538 13.3934359,1.41563716 L8.68787324,6.89120076 C8.26009563,7.49009001 7.66120488,7.74675748 6.89119947,7.74675748 C6.97675514,7.74675748 6.89119947,7.74675748 6.89119947,7.74675748 L6.8912103,7.74675748 Z" id="路径"></path>
                    </g>
                </g>
            </g>
        </g>
    </g>
</svg>
