<?xml version="1.0" encoding="UTF-8"?>
<svg width="16px" height="16px" viewBox="0 0 16 16" version="1.1" xmlns="http://www.w3.org/2000/svg" xmlns:xlink="http://www.w3.org/1999/xlink">
    <title>形状</title>
    <g id="试驾web页面" stroke="none" stroke-width="1" fill="none" fill-rule="evenodd">
        <g id="鼠标反馈变化" transform="translate(-515.000000, -573.000000)" fill="#30BF94" fill-rule="nonzero">
            <g id="选择" transform="translate(515.000000, 573.000000)">
                <path d="M7.99999305,0.334520695 C3.76638031,0.334520695 0.334496633,3.76638719 0.334496633,8.00001712 C0.334496633,12.2336299 3.76638031,15.6655135 7.99999305,15.6655135 C12.2336058,15.6655135 15.6654895,12.2336299 15.6654895,8.00001712 C15.6654895,3.76638719 12.2336058,0.334520695 7.99999305,0.334520695 Z M12.5209639,6.13316026 L7.45544086,11.2533397 L7.43396574,11.2962897 L7.37092999,11.3348076 C7.31288928,11.3828055 7.25597419,11.4140244 7.21247876,11.4380321 L7.20465206,11.4424643 C7.17621205,11.4636931 7.13465142,11.4932763 7.07576646,11.5155604 C6.95913986,11.5624151 6.83252352,11.5869857 6.70419978,11.5869857 C6.57278159,11.5869857 6.44391369,11.5613071 6.32172933,11.5111283 C6.26229919,11.48603 6.22237412,11.4564469 6.20007246,11.4396854 L6.19115528,11.43411 C6.14734326,11.410665 6.09100858,11.3794638 6.03296788,11.3297775 L5.99112589,11.3091466 L5.9545603,11.2539025 L3.47347304,8.70413386 C3.0851279,8.30467356 3.09434385,7.66411531 3.49325966,7.27584064 C3.68379191,7.09167636 3.93373626,6.99015656 4.1973636,6.99015656 C4.47244126,6.99015656 4.72936891,7.09895648 4.92102522,7.29588988 L6.71088199,9.13543577 L11.0854152,4.71320719 C11.2764923,4.5201604 11.5314674,4.41306668 11.8034668,4.41306668 C12.071281,4.41306668 12.3231951,4.51683651 12.5137102,4.70541609 C12.9084576,5.09821107 12.9112369,5.73871604 12.520974,6.13316447 L12.5209639,6.13316026 Z" id="形状"></path>
            </g>
        </g>
    </g>
</svg>